<?xml version="1.0" encoding="UTF-8" standalone="no"?><!DOCTYPE svg PUBLIC "-//W3C//DTD SVG 1.1//EN" "http://www.w3.org/Graphics/SVG/1.1/DTD/svg11.dtd"><svg width="100%" height="100%" viewBox="0 0 709 103" version="1.1" xmlns="http://www.w3.org/2000/svg" xmlns:xlink="http://www.w3.org/1999/xlink" xml:space="preserve" style="fill-rule:evenodd;clip-rule:evenodd;stroke-linejoin:round;stroke-miterlimit:1.41421;"><path d="M11.599,71.715l30.439,0l0,4.16l-35.368,0l0,-58.24l4.929,0l0,54.08Z" style="fill:#fff;fill-rule:nonzero;"/><path d="M75.023,76.675c-3.094,0 -5.915,-0.56 -8.462,-1.68c-2.547,-1.12 -4.731,-2.64 -6.552,-4.56c-1.821,-1.92 -3.231,-4.167 -4.231,-6.74c-0.999,-2.573 -1.513,-5.313 -1.54,-8.22l0,-1.72c0.027,-3.093 0.554,-5.973 1.581,-8.64c1.027,-2.667 2.431,-4.987 4.211,-6.96c1.78,-1.973 3.875,-3.527 6.285,-4.66c2.41,-1.133 4.998,-1.7 7.763,-1.7c2.958,0 5.573,0.52 7.846,1.56c2.273,1.04 4.183,2.46 5.731,4.26c1.547,1.8 2.725,3.9 3.532,6.3c0.808,2.4 1.226,4.973 1.253,7.72l0,2.92l-33.273,0l0,0.92c0.028,2.267 0.425,4.433 1.192,6.5c0.766,2.067 1.848,3.887 3.245,5.46c1.396,1.573 3.08,2.833 5.052,3.78c1.972,0.947 4.163,1.42 6.573,1.42c2.738,0.027 5.217,-0.467 7.435,-1.48c2.218,-1.013 4.108,-2.48 5.668,-4.4l3.122,2.28c-0.821,1.12 -1.793,2.153 -2.916,3.1c-1.123,0.947 -2.376,1.753 -3.759,2.42c-1.383,0.667 -2.896,1.187 -4.539,1.56c-1.643,0.373 -3.382,0.56 -5.217,0.56Zm-0.945,-40.8c-1.999,0 -3.833,0.367 -5.504,1.1c-1.67,0.733 -3.136,1.753 -4.395,3.06c-1.26,1.307 -2.301,2.847 -3.122,4.62c-0.822,1.773 -1.383,3.713 -1.684,5.82l28.138,0l0,-0.52c-0.055,-1.787 -0.39,-3.527 -1.006,-5.22c-0.617,-1.693 -1.493,-3.193 -2.629,-4.5c-1.137,-1.307 -2.527,-2.36 -4.17,-3.16c-1.643,-0.8 -3.519,-1.2 -5.628,-1.2Z" style="fill:#fff;fill-rule:nonzero;"/><path d="M111.048,32.595l0.37,8.12c1.561,-2.693 3.642,-4.847 6.244,-6.46c2.602,-1.613 5.559,-2.433 8.873,-2.46c4.874,0 8.599,1.42 11.173,4.26c2.574,2.84 3.875,6.873 3.902,12.1l0,27.72l-4.929,0l0,-27.64c-0.027,-3.973 -0.958,-7.02 -2.793,-9.14c-1.835,-2.12 -4.683,-3.167 -8.544,-3.14c-1.589,0 -3.102,0.253 -4.54,0.76c-1.437,0.507 -2.752,1.2 -3.943,2.08c-1.191,0.88 -2.246,1.92 -3.163,3.12c-0.917,1.2 -1.664,2.507 -2.239,3.92l0,30.04l-4.929,0l0,-43.28l4.518,0Z" style="fill:#fff;fill-rule:nonzero;"/><path d="M188.028,64.875c0,-1.333 -0.342,-2.493 -1.027,-3.48c-0.684,-0.987 -1.622,-1.833 -2.813,-2.54c-1.192,-0.707 -2.568,-1.3 -4.129,-1.78c-1.561,-0.48 -3.218,-0.893 -4.97,-1.24c-2.136,-0.427 -4.204,-0.94 -6.203,-1.54c-1.999,-0.6 -3.779,-1.367 -5.34,-2.3c-1.561,-0.933 -2.807,-2.073 -3.738,-3.42c-0.931,-1.347 -1.397,-3.007 -1.397,-4.98c0,-1.867 0.479,-3.533 1.438,-5c0.958,-1.467 2.218,-2.707 3.779,-3.72c1.561,-1.013 3.341,-1.78 5.34,-2.3c1.999,-0.52 4.053,-0.78 6.162,-0.78c2.41,0 4.662,0.287 6.757,0.86c2.095,0.573 3.93,1.413 5.505,2.52c1.574,1.107 2.827,2.46 3.758,4.06c0.931,1.6 1.438,3.427 1.52,5.48l-4.929,0c-0.055,-1.387 -0.438,-2.633 -1.15,-3.74c-0.712,-1.107 -1.657,-2.033 -2.835,-2.78c-1.177,-0.747 -2.512,-1.32 -4.005,-1.72c-1.492,-0.4 -3.033,-0.6 -4.621,-0.6c-1.479,0 -2.924,0.153 -4.334,0.46c-1.41,0.307 -2.67,0.773 -3.779,1.4c-1.109,0.627 -1.999,1.413 -2.67,2.36c-0.671,0.947 -1.006,2.06 -1.006,3.34c-0.028,1.36 0.294,2.5 0.965,3.42c0.671,0.92 1.581,1.693 2.732,2.32c1.15,0.627 2.498,1.147 4.046,1.56c1.547,0.413 3.197,0.793 4.95,1.14c2.245,0.453 4.388,1.007 6.428,1.66c2.04,0.653 3.841,1.467 5.402,2.44c1.561,0.973 2.793,2.167 3.697,3.58c0.904,1.413 1.356,3.107 1.356,5.08c0,2.027 -0.5,3.793 -1.5,5.3c-0.999,1.507 -2.314,2.76 -3.943,3.76c-1.63,1 -3.492,1.747 -5.587,2.24c-2.095,0.493 -4.251,0.74 -6.47,0.74c-2.492,0 -4.84,-0.293 -7.044,-0.88c-2.205,-0.587 -4.149,-1.433 -5.833,-2.54c-1.685,-1.107 -3.033,-2.46 -4.047,-4.06c-1.013,-1.6 -1.561,-3.413 -1.643,-5.44l4.93,0c0.164,1.707 0.691,3.133 1.581,4.28c0.89,1.147 1.985,2.06 3.286,2.74c1.301,0.68 2.718,1.16 4.252,1.44c1.533,0.28 3.04,0.42 4.518,0.42c1.507,0 3.006,-0.153 4.498,-0.46c1.493,-0.307 2.835,-0.773 4.026,-1.4c1.191,-0.627 2.163,-1.427 2.917,-2.4c0.753,-0.973 1.143,-2.14 1.17,-3.5Z" style="fill:#fff;fill-rule:nonzero;"/><path d="M264.351,62.675l0.328,4.08l0.493,-4.08l8.709,-45.04l4.272,0l8.708,45.04l0.493,4.2l0.37,-4.2l6.121,-45.04l4.6,0l-8.421,58.24l-4.888,0l-9.119,-48.56l-9.16,48.56l-4.889,0l-8.421,-58.24l4.642,0l6.162,45.04Z" style="fill:#fff;fill-rule:nonzero;"/><path d="M309.619,32.595l20.621,0l0,39.04l15.116,0l0,4.24l-35.737,0l0,-4.24l15.691,0l0,-34.76l-15.691,0l0,-4.28Zm14.254,-11.84c0,-0.987 0.287,-1.84 0.862,-2.56c0.575,-0.72 1.534,-1.08 2.876,-1.08c1.314,0 2.266,0.36 2.855,1.08c0.588,0.72 0.883,1.573 0.883,2.56c0,0.933 -0.295,1.753 -0.883,2.46c-0.589,0.707 -1.541,1.06 -2.855,1.06c-1.342,0 -2.301,-0.353 -2.876,-1.06c-0.575,-0.707 -0.862,-1.527 -0.862,-2.46Z" style="fill:#fff;fill-rule:nonzero;"/><path d="M357.474,53.835c0,-2.88 0.37,-5.647 1.109,-8.3c0.74,-2.653 1.842,-5 3.307,-7.04c1.465,-2.04 3.3,-3.667 5.504,-4.88c2.205,-1.213 4.8,-1.82 7.785,-1.82c2.82,0 5.347,0.587 7.579,1.76c2.231,1.173 4.1,2.813 5.607,4.92l0,-24.04l4.888,0l0,61.44l-4.601,0l-0.205,-5.64c-1.561,2.08 -3.478,3.673 -5.751,4.78c-2.273,1.107 -4.806,1.66 -7.599,1.66c-2.931,0 -5.498,-0.62 -7.703,-1.86c-2.204,-1.24 -4.039,-2.88 -5.504,-4.92c-1.465,-2.04 -2.567,-4.387 -3.307,-7.04c-0.739,-2.653 -1.109,-5.38 -1.109,-8.18l0,-0.84Zm4.971,0.84c0,2.16 0.239,4.307 0.718,6.44c0.48,2.133 1.253,4.047 2.321,5.74c1.068,1.693 2.465,3.06 4.19,4.1c1.726,1.04 3.834,1.56 6.326,1.56c1.397,0 2.718,-0.173 3.964,-0.52c1.246,-0.347 2.396,-0.847 3.451,-1.5c1.054,-0.653 1.999,-1.44 2.834,-2.36c0.835,-0.92 1.541,-1.953 2.116,-3.1l0,-20.96c-0.548,-1.2 -1.226,-2.293 -2.034,-3.28c-0.808,-0.987 -1.732,-1.84 -2.772,-2.56c-1.041,-0.72 -2.191,-1.28 -3.451,-1.68c-1.26,-0.4 -2.602,-0.6 -4.026,-0.6c-2.519,0 -4.641,0.527 -6.367,1.58c-1.725,1.053 -3.128,2.427 -4.21,4.12c-1.082,1.693 -1.862,3.607 -2.342,5.74c-0.479,2.133 -0.718,4.28 -0.718,6.44l0,0.84Z" style="fill:#fff;fill-rule:nonzero;"/><path d="M428.415,76.675c-3.094,0 -5.915,-0.56 -8.462,-1.68c-2.546,-1.12 -4.73,-2.64 -6.551,-4.56c-1.822,-1.92 -3.232,-4.167 -4.231,-6.74c-1,-2.573 -1.513,-5.313 -1.541,-8.22l0,-1.72c0.028,-3.093 0.555,-5.973 1.582,-8.64c1.027,-2.667 2.43,-4.987 4.21,-6.96c1.78,-1.973 3.875,-3.527 6.285,-4.66c2.41,-1.133 4.998,-1.7 7.764,-1.7c2.957,0 5.573,0.52 7.846,1.56c2.273,1.04 4.183,2.46 5.73,4.26c1.547,1.8 2.725,3.9 3.533,6.3c0.807,2.4 1.225,4.973 1.252,7.72l0,2.92l-33.273,0l0,0.92c0.028,2.267 0.425,4.433 1.192,6.5c0.767,2.067 1.848,3.887 3.245,5.46c1.397,1.573 3.081,2.833 5.052,3.78c1.972,0.947 4.163,1.42 6.573,1.42c2.738,0.027 5.217,-0.467 7.435,-1.48c2.218,-1.013 4.108,-2.48 5.669,-4.4l3.122,2.28c-0.822,1.12 -1.794,2.153 -2.917,3.1c-1.123,0.947 -2.376,1.753 -3.759,2.42c-1.382,0.667 -2.896,1.187 -4.539,1.56c-1.643,0.373 -3.382,0.56 -5.217,0.56Zm-0.944,-40.8c-1.999,0 -3.834,0.367 -5.505,1.1c-1.67,0.733 -3.135,1.753 -4.395,3.06c-1.26,1.307 -2.3,2.847 -3.122,4.62c-0.822,1.773 -1.383,3.713 -1.684,5.82l28.138,0l0,-0.52c-0.055,-1.787 -0.39,-3.527 -1.006,-5.22c-0.616,-1.693 -1.493,-3.193 -2.629,-4.5c-1.137,-1.307 -2.527,-2.36 -4.17,-3.16c-1.643,-0.8 -3.519,-1.2 -5.627,-1.2Z" style="fill:#fff;fill-rule:nonzero;"/><path d="M543.146,61.555c0,-1.36 -0.212,-2.58 -0.637,-3.66c-0.424,-1.08 -1.013,-2.047 -1.766,-2.9c-0.753,-0.853 -1.623,-1.607 -2.609,-2.26c-0.986,-0.653 -2.04,-1.233 -3.163,-1.74c-1.123,-0.507 -2.273,-0.96 -3.45,-1.36c-1.178,-0.4 -2.314,-0.773 -3.41,-1.12c-1.396,-0.427 -2.814,-0.9 -4.251,-1.42c-1.438,-0.52 -2.835,-1.12 -4.19,-1.8c-1.356,-0.68 -2.629,-1.453 -3.82,-2.32c-1.192,-0.867 -2.232,-1.847 -3.122,-2.94c-0.89,-1.093 -1.589,-2.313 -2.095,-3.66c-0.507,-1.347 -0.76,-2.847 -0.76,-4.5c0,-2.427 0.554,-4.573 1.663,-6.44c1.11,-1.867 2.554,-3.44 4.334,-4.72c1.78,-1.28 3.786,-2.247 6.018,-2.9c2.232,-0.653 4.484,-0.98 6.757,-0.98c2.547,0 4.971,0.407 7.271,1.22c2.3,0.813 4.32,1.953 6.059,3.42c1.739,1.467 3.129,3.247 4.169,5.34c1.041,2.093 1.602,4.42 1.685,6.98l-4.971,0c-0.219,-1.893 -0.698,-3.62 -1.438,-5.18c-0.739,-1.56 -1.725,-2.9 -2.957,-4.02c-1.232,-1.12 -2.677,-1.993 -4.334,-2.62c-1.657,-0.627 -3.485,-0.94 -5.484,-0.94c-1.67,0 -3.32,0.22 -4.95,0.66c-1.629,0.44 -3.094,1.107 -4.395,2c-1.301,0.893 -2.355,2.013 -3.163,3.36c-0.808,1.347 -1.212,2.927 -1.212,4.74c0,1.947 0.473,3.6 1.418,4.96c0.944,1.36 2.142,2.507 3.594,3.44c1.451,0.933 3.046,1.713 4.785,2.34c1.739,0.627 3.389,1.167 4.95,1.62c1.452,0.427 2.917,0.913 4.396,1.46c1.478,0.547 2.909,1.18 4.292,1.9c1.383,0.72 2.677,1.527 3.882,2.42c1.205,0.893 2.252,1.913 3.143,3.06c0.89,1.147 1.588,2.42 2.094,3.82c0.507,1.4 0.76,2.953 0.76,4.66c0,2.56 -0.568,4.787 -1.704,6.68c-1.137,1.893 -2.609,3.473 -4.416,4.74c-1.808,1.267 -3.861,2.213 -6.162,2.84c-2.3,0.627 -4.628,0.94 -6.983,0.94c-2.629,0 -5.176,-0.373 -7.641,-1.12c-2.464,-0.747 -4.662,-1.84 -6.593,-3.28c-1.93,-1.44 -3.498,-3.22 -4.703,-5.34c-1.205,-2.12 -1.848,-4.54 -1.931,-7.26l4.971,0c0.246,2.08 0.815,3.927 1.705,5.54c0.89,1.613 2.033,2.96 3.43,4.04c1.396,1.08 3.012,1.893 4.847,2.44c1.835,0.547 3.806,0.82 5.915,0.82c1.753,0 3.471,-0.213 5.155,-0.64c1.684,-0.427 3.197,-1.087 4.539,-1.98c1.342,-0.893 2.424,-2.027 3.245,-3.4c0.822,-1.373 1.233,-3.02 1.233,-4.94Z" style="fill:#fff;fill-rule:nonzero;"/><path d="M565.821,40.955c1.561,-2.773 3.642,-4.987 6.244,-6.64c2.601,-1.653 5.572,-2.493 8.913,-2.52c2.438,0 4.594,0.367 6.47,1.1c1.876,0.733 3.451,1.8 4.724,3.2c1.274,1.4 2.246,3.12 2.917,5.16c0.671,2.04 1.006,4.367 1.006,6.98l0,27.64l-4.929,0l0,-27.64c0,-1.92 -0.233,-3.64 -0.699,-5.16c-0.465,-1.52 -1.17,-2.807 -2.115,-3.86c-0.945,-1.053 -2.129,-1.86 -3.553,-2.42c-1.424,-0.56 -3.095,-0.84 -5.012,-0.84c-1.561,0 -3.053,0.24 -4.477,0.72c-1.424,0.48 -2.739,1.147 -3.944,2c-1.205,0.853 -2.28,1.86 -3.224,3.02c-0.945,1.16 -1.719,2.433 -2.321,3.82l0,30.36l-4.93,0l0,-61.44l4.93,0l0,26.52Z" style="fill:#fff;fill-rule:nonzero;"/><path d="M641.198,69.115c-1.478,2.373 -3.43,4.227 -5.853,5.56c-2.424,1.333 -5.292,2 -8.606,2c-2.465,0 -4.635,-0.387 -6.511,-1.16c-1.876,-0.773 -3.45,-1.907 -4.724,-3.4c-1.273,-1.493 -2.245,-3.32 -2.916,-5.48c-0.671,-2.16 -1.007,-4.627 -1.007,-7.4l0,-26.64l4.889,0l0,26.72c0.054,4.347 0.958,7.64 2.711,9.88c1.752,2.24 4.464,3.36 8.133,3.36c3.697,0 6.696,-0.827 8.996,-2.48c2.301,-1.653 3.903,-3.893 4.806,-6.72l-0.041,-30.76l4.971,0l0,43.28l-4.601,0l-0.247,-6.76Z" style="fill:#fff;fill-rule:nonzero;"/><path d="M678.251,21.515l0,11.08l16.472,0l0,3.92l-16.472,0l0,27.24c0.027,1.68 0.294,3.073 0.801,4.18c0.506,1.107 1.191,2 2.054,2.68c0.862,0.68 1.875,1.167 3.039,1.46c1.164,0.293 2.431,0.44 3.8,0.44c1.369,0 2.773,-0.093 4.21,-0.28c1.438,-0.187 2.664,-0.373 3.677,-0.56l0.739,3.64c-1.177,0.453 -2.615,0.793 -4.313,1.02c-1.698,0.227 -3.423,0.34 -5.176,0.34c-1.971,0 -3.793,-0.233 -5.463,-0.7c-1.671,-0.467 -3.122,-1.213 -4.354,-2.24c-1.233,-1.027 -2.205,-2.36 -2.917,-4c-0.712,-1.64 -1.081,-3.647 -1.109,-6.02l0,-27.2l-12.364,0l0,-3.92l12.364,0l0,-11.08l5.012,0Z" style="fill:#fff;fill-rule:nonzero;"/></svg>